<mxfile host="www.draw.io" modified="2019-11-22T06:57:51.008Z" agent="Mozilla/5.0 (Windows NT 10.0; Win64; x64) AppleWebKit/537.36 (KHTML, like Gecko) Chrome/78.0.3904.97 Safari/537.36" etag="oCOmViFdEprg_Wpr-HaE" version="12.2.9" type="github" pages="1">
  <diagram id="ascZHyp_YfK_p-528XNL" name="第 1 页">
    <mxGraphModel dx="1422" dy="762" grid="1" gridSize="10" guides="1" tooltips="1" connect="1" arrows="1" fold="1" page="1" pageScale="1" pageWidth="827" pageHeight="1169" math="0" shadow="0">
      <root>
        <mxCell id="0"/>
        <mxCell id="1" parent="0"/>
        <mxCell id="5aiVry4SEzzhgw1wP6Zf-1" value="" style="rounded=0;whiteSpace=wrap;html=1;" vertex="1" parent="1">
          <mxGeometry x="80" y="230" width="70" height="50" as="geometry"/>
        </mxCell>
        <mxCell id="5aiVry4SEzzhgw1wP6Zf-2" value="" style="rounded=0;whiteSpace=wrap;html=1;" vertex="1" parent="1">
          <mxGeometry x="80" y="280" width="70" height="50" as="geometry"/>
        </mxCell>
        <mxCell id="5aiVry4SEzzhgw1wP6Zf-8" style="edgeStyle=orthogonalEdgeStyle;rounded=0;orthogonalLoop=1;jettySize=auto;html=1;entryX=0;entryY=0.5;entryDx=0;entryDy=0;" edge="1" parent="1" source="5aiVry4SEzzhgw1wP6Zf-4" target="5aiVry4SEzzhgw1wP6Zf-7">
          <mxGeometry relative="1" as="geometry"/>
        </mxCell>
        <mxCell id="5aiVry4SEzzhgw1wP6Zf-4" value="&amp;lt;k1, v1&amp;gt;" style="rounded=0;whiteSpace=wrap;html=1;fontStyle=0" vertex="1" parent="1">
          <mxGeometry x="80" y="390" width="70" height="50" as="geometry"/>
        </mxCell>
        <mxCell id="5aiVry4SEzzhgw1wP6Zf-5" value="&lt;b&gt;......&lt;/b&gt;" style="text;html=1;strokeColor=none;fillColor=none;align=center;verticalAlign=middle;whiteSpace=wrap;rounded=0;" vertex="1" parent="1">
          <mxGeometry x="90" y="340" width="40" height="20" as="geometry"/>
        </mxCell>
        <mxCell id="5aiVry4SEzzhgw1wP6Zf-6" value="" style="rounded=0;whiteSpace=wrap;html=1;" vertex="1" parent="1">
          <mxGeometry x="80" y="440" width="70" height="50" as="geometry"/>
        </mxCell>
        <mxCell id="5aiVry4SEzzhgw1wP6Zf-10" style="edgeStyle=orthogonalEdgeStyle;rounded=0;orthogonalLoop=1;jettySize=auto;html=1;" edge="1" parent="1" source="5aiVry4SEzzhgw1wP6Zf-7" target="5aiVry4SEzzhgw1wP6Zf-9">
          <mxGeometry relative="1" as="geometry"/>
        </mxCell>
        <mxCell id="5aiVry4SEzzhgw1wP6Zf-7" value="&amp;lt;k2, v2&amp;gt;" style="rounded=0;whiteSpace=wrap;html=1;fontStyle=0" vertex="1" parent="1">
          <mxGeometry x="200" y="390" width="70" height="50" as="geometry"/>
        </mxCell>
        <mxCell id="5aiVry4SEzzhgw1wP6Zf-9" value="&amp;lt;k3, v3&amp;gt;" style="rounded=0;whiteSpace=wrap;html=1;fontStyle=0" vertex="1" parent="1">
          <mxGeometry x="310" y="390" width="70" height="50" as="geometry"/>
        </mxCell>
        <mxCell id="5aiVry4SEzzhgw1wP6Zf-11" value="当2个线程同时写入数据，触发resize时" style="text;html=1;strokeColor=#A50040;fillColor=#d80073;align=center;verticalAlign=middle;whiteSpace=wrap;rounded=0;fontColor=#ffffff;" vertex="1" parent="1">
          <mxGeometry x="358" y="160" width="110" height="50" as="geometry"/>
        </mxCell>
        <mxCell id="5aiVry4SEzzhgw1wP6Zf-12" value="" style="rounded=0;whiteSpace=wrap;html=1;" vertex="1" parent="1">
          <mxGeometry x="530" y="210" width="70" height="50" as="geometry"/>
        </mxCell>
        <mxCell id="5aiVry4SEzzhgw1wP6Zf-13" value="" style="rounded=0;whiteSpace=wrap;html=1;" vertex="1" parent="1">
          <mxGeometry x="530" y="260" width="70" height="50" as="geometry"/>
        </mxCell>
        <mxCell id="5aiVry4SEzzhgw1wP6Zf-14" value="" style="rounded=0;whiteSpace=wrap;html=1;" vertex="1" parent="1">
          <mxGeometry x="530" y="310" width="70" height="50" as="geometry"/>
        </mxCell>
        <mxCell id="5aiVry4SEzzhgw1wP6Zf-21" style="edgeStyle=orthogonalEdgeStyle;rounded=0;orthogonalLoop=1;jettySize=auto;html=1;entryX=0;entryY=0.5;entryDx=0;entryDy=0;" edge="1" parent="1" source="5aiVry4SEzzhgw1wP6Zf-15" target="5aiVry4SEzzhgw1wP6Zf-20">
          <mxGeometry relative="1" as="geometry"/>
        </mxCell>
        <mxCell id="5aiVry4SEzzhgw1wP6Zf-15" value="" style="rounded=0;whiteSpace=wrap;html=1;" vertex="1" parent="1">
          <mxGeometry x="530" y="360" width="70" height="50" as="geometry"/>
        </mxCell>
        <mxCell id="5aiVry4SEzzhgw1wP6Zf-16" value="" style="rounded=0;whiteSpace=wrap;html=1;" vertex="1" parent="1">
          <mxGeometry x="530" y="410" width="70" height="50" as="geometry"/>
        </mxCell>
        <mxCell id="5aiVry4SEzzhgw1wP6Zf-17" value="" style="rounded=0;whiteSpace=wrap;html=1;" vertex="1" parent="1">
          <mxGeometry x="530" y="520" width="70" height="50" as="geometry"/>
        </mxCell>
        <mxCell id="5aiVry4SEzzhgw1wP6Zf-18" value="&lt;b&gt;......&lt;/b&gt;" style="text;html=1;strokeColor=none;fillColor=none;align=center;verticalAlign=middle;whiteSpace=wrap;rounded=0;" vertex="1" parent="1">
          <mxGeometry x="540" y="480" width="40" height="20" as="geometry"/>
        </mxCell>
        <mxCell id="5aiVry4SEzzhgw1wP6Zf-19" value="" style="rounded=0;whiteSpace=wrap;html=1;" vertex="1" parent="1">
          <mxGeometry x="530" y="570" width="70" height="50" as="geometry"/>
        </mxCell>
        <mxCell id="5aiVry4SEzzhgw1wP6Zf-23" style="edgeStyle=orthogonalEdgeStyle;rounded=0;orthogonalLoop=1;jettySize=auto;html=1;entryX=0;entryY=0.5;entryDx=0;entryDy=0;" edge="1" parent="1" source="5aiVry4SEzzhgw1wP6Zf-20" target="5aiVry4SEzzhgw1wP6Zf-22">
          <mxGeometry relative="1" as="geometry"/>
        </mxCell>
        <mxCell id="5aiVry4SEzzhgw1wP6Zf-20" value="&amp;lt;k3, v3&amp;gt;" style="rounded=0;whiteSpace=wrap;html=1;fontStyle=0" vertex="1" parent="1">
          <mxGeometry x="660" y="360" width="70" height="50" as="geometry"/>
        </mxCell>
        <mxCell id="5aiVry4SEzzhgw1wP6Zf-25" style="edgeStyle=orthogonalEdgeStyle;rounded=0;orthogonalLoop=1;jettySize=auto;html=1;entryX=0;entryY=0.5;entryDx=0;entryDy=0;" edge="1" parent="1" source="5aiVry4SEzzhgw1wP6Zf-22" target="5aiVry4SEzzhgw1wP6Zf-24">
          <mxGeometry relative="1" as="geometry"/>
        </mxCell>
        <mxCell id="5aiVry4SEzzhgw1wP6Zf-22" value="&amp;lt;k2, v2&amp;gt;" style="rounded=0;whiteSpace=wrap;html=1;fontStyle=0" vertex="1" parent="1">
          <mxGeometry x="780" y="360" width="70" height="50" as="geometry"/>
        </mxCell>
        <mxCell id="5aiVry4SEzzhgw1wP6Zf-35" style="edgeStyle=orthogonalEdgeStyle;rounded=0;orthogonalLoop=1;jettySize=auto;html=1;entryX=0.5;entryY=1;entryDx=0;entryDy=0;" edge="1" parent="1" source="5aiVry4SEzzhgw1wP6Zf-24" target="5aiVry4SEzzhgw1wP6Zf-22">
          <mxGeometry relative="1" as="geometry">
            <Array as="points">
              <mxPoint x="945" y="430"/>
              <mxPoint x="815" y="430"/>
            </Array>
          </mxGeometry>
        </mxCell>
        <mxCell id="5aiVry4SEzzhgw1wP6Zf-24" value="&amp;lt;k1, v1&amp;gt;" style="rounded=0;whiteSpace=wrap;html=1;fontStyle=0" vertex="1" parent="1">
          <mxGeometry x="910" y="360" width="70" height="50" as="geometry"/>
        </mxCell>
        <mxCell id="5aiVry4SEzzhgw1wP6Zf-26" value="" style="rounded=0;whiteSpace=wrap;html=1;" vertex="1" parent="1">
          <mxGeometry x="1030" y="210" width="70" height="50" as="geometry"/>
        </mxCell>
        <mxCell id="5aiVry4SEzzhgw1wP6Zf-27" value="" style="rounded=0;whiteSpace=wrap;html=1;" vertex="1" parent="1">
          <mxGeometry x="1030" y="260" width="70" height="50" as="geometry"/>
        </mxCell>
        <mxCell id="5aiVry4SEzzhgw1wP6Zf-28" value="" style="rounded=0;whiteSpace=wrap;html=1;" vertex="1" parent="1">
          <mxGeometry x="1030" y="310" width="70" height="50" as="geometry"/>
        </mxCell>
        <mxCell id="5aiVry4SEzzhgw1wP6Zf-34" style="edgeStyle=orthogonalEdgeStyle;rounded=0;orthogonalLoop=1;jettySize=auto;html=1;entryX=1;entryY=0.5;entryDx=0;entryDy=0;" edge="1" parent="1" source="5aiVry4SEzzhgw1wP6Zf-29" target="5aiVry4SEzzhgw1wP6Zf-24">
          <mxGeometry relative="1" as="geometry"/>
        </mxCell>
        <mxCell id="5aiVry4SEzzhgw1wP6Zf-29" value="" style="rounded=0;whiteSpace=wrap;html=1;" vertex="1" parent="1">
          <mxGeometry x="1030" y="360" width="70" height="50" as="geometry"/>
        </mxCell>
        <mxCell id="5aiVry4SEzzhgw1wP6Zf-30" value="" style="rounded=0;whiteSpace=wrap;html=1;" vertex="1" parent="1">
          <mxGeometry x="1030" y="410" width="70" height="50" as="geometry"/>
        </mxCell>
        <mxCell id="5aiVry4SEzzhgw1wP6Zf-31" value="" style="rounded=0;whiteSpace=wrap;html=1;" vertex="1" parent="1">
          <mxGeometry x="1030" y="520" width="70" height="50" as="geometry"/>
        </mxCell>
        <mxCell id="5aiVry4SEzzhgw1wP6Zf-32" value="&lt;b&gt;......&lt;/b&gt;" style="text;html=1;strokeColor=none;fillColor=none;align=center;verticalAlign=middle;whiteSpace=wrap;rounded=0;" vertex="1" parent="1">
          <mxGeometry x="1040" y="480" width="40" height="20" as="geometry"/>
        </mxCell>
        <mxCell id="5aiVry4SEzzhgw1wP6Zf-33" value="" style="rounded=0;whiteSpace=wrap;html=1;" vertex="1" parent="1">
          <mxGeometry x="1030" y="570" width="70" height="50" as="geometry"/>
        </mxCell>
        <mxCell id="5aiVry4SEzzhgw1wP6Zf-36" value="线程1" style="text;html=1;strokeColor=none;fillColor=none;align=center;verticalAlign=middle;whiteSpace=wrap;rounded=0;" vertex="1" parent="1">
          <mxGeometry x="545" y="175" width="40" height="20" as="geometry"/>
        </mxCell>
        <mxCell id="5aiVry4SEzzhgw1wP6Zf-37" value="线程2" style="text;html=1;strokeColor=none;fillColor=none;align=center;verticalAlign=middle;whiteSpace=wrap;rounded=0;" vertex="1" parent="1">
          <mxGeometry x="1040" y="175" width="40" height="20" as="geometry"/>
        </mxCell>
        <mxCell id="5aiVry4SEzzhgw1wP6Zf-38" value="如果把线程2的结果赋值给hashmap中的数组的话，k3,v3数据就会丢了" style="text;html=1;strokeColor=#A50040;fillColor=#d80073;align=center;verticalAlign=middle;whiteSpace=wrap;rounded=0;fontColor=#ffffff;" vertex="1" parent="1">
          <mxGeometry x="890" y="465" width="130" height="60" as="geometry"/>
        </mxCell>
      </root>
    </mxGraphModel>
  </diagram>
</mxfile>
